<svg id="Layer_1" enable-background="new 0 0 56.69 56.69" height="512" viewBox="0 0 56.69 56.69" width="512" xmlns="http://www.w3.org/2000/svg"><g><path d="m30.829 4.129 17.65 17.65c.661.661 1.025 1.54 1.025 2.475s-.364 1.813-1.025 2.475c-1.322 1.322-3.627 1.322-4.949 0l-11.686-11.684v35.05c0 1.929-1.571 3.5-3.5 3.5-1.93 0-3.5-1.57-3.5-3.5v-35.05l-11.684 11.685c-1.323 1.323-3.628 1.322-4.95 0-1.364-1.364-1.364-3.584 0-4.949l17.659-17.661c.262-.216 1.088-.842 2.317-.892 1.432-.058 2.409.707 2.643.901zm-3.546 1.405-17.659 17.661c-.584.585-.584 1.537 0 2.121.565.564 1.555.567 2.122 0l15.098-15.1v39.878c0 .827.673 1.5 1.5 1.5s1.5-.673 1.5-1.5v-39.877l15.1 15.1c.566.566 1.555.566 2.121 0 .283-.284.439-.66.439-1.061s-.156-.777-.439-1.061l-17.654-17.653c-.08-.077-.459-.425-1.054-.431-.605-.005-.996.349-1.074.423z"/></g></svg>