<svg height="512pt" viewBox="-61 0 512 512" width="512pt" xmlns="http://www.w3.org/2000/svg"><path d="m300 30-30 30h-150l-30-30h-90v482h390.003906v-482zm0 0" fill="#ea8e15"/><path d="m195 60v452h195.003906v-482h-90.003906l-30 30zm0 0" fill="#ea652d"/><path d="m30 60h330.003906v422h-330.003906zm0 0" fill="#fff7cc"/><path d="m360.003906 482v-422h-165.003906v422zm0 0" fill="#ffe6b3"/><path d="m300 91.996094h-210v-61.996094h62.5625c6.195312-17.460938 22.882812-30 42.4375-30 19.558594 0 36.242188 12.539062 42.4375 30h62.5625zm0 0" fill="#766e6e"/><path d="m300 91.996094v-61.996094h-62.5625c-6.195312-17.460938-22.878906-30-42.4375-30v91.996094zm0 0" fill="#5b5555"/><path d="m304.703125 255.929688-137.886719 137.886718c-16.992187 16.992188-46.640625 16.992188-63.632812 0-8.496094-8.496094-13.183594-19.792968-13.183594-31.816406 0-12.027344 4.6875-23.320312 13.183594-31.816406l127.296875-127.28125c5.640625-5.683594 15.496093-5.65625 21.195312 0 5.847657 5.84375 5.847657 15.363281 0 21.210937l-127.28125 127.28125 21.210938 21.210938 127.28125-127.28125c17.550781-17.550781 17.550781-46.085938 0-63.632813-17.007813-17.007812-46.683594-16.980468-63.632813 0l-127.28125 127.28125c-14.164062 14.148438-21.972656 32.988282-21.972656 53.027344s7.808594 38.875 21.972656 53.027344c14.148438 14.164062 32.988282 21.972656 53.027344 21.972656s38.878906-7.808594 53.027344-21.972656l137.886718-137.886719zm0 0" fill="#766e6e"/><g fill="#5b5555"><path d="m195 238.375 35.480469-35.476562c5.640625-5.683594 15.496093-5.652344 21.195312 0 5.847657 5.847656 5.847657 15.367187 0 21.210937l-56.675781 56.675781v42.425782l77.886719-77.886719c17.550781-17.550781 17.550781-46.085938 0-63.636719-17.007813-17.007812-46.683594-16.976562-63.632813 0l-14.253906 14.253906zm0 0"/><path d="m325.917969 277.140625-21.214844-21.210937-109.703125 109.703124v42.421876zm0 0"/></g></svg>