<?xml version="1.0" encoding="iso-8859-1"?>
<!-- Generator: Adobe Illustrator 19.0.0, SVG Export Plug-In . SVG Version: 6.00 Build 0)  -->
<svg version="1.1" id="Layer_1" xmlns="http://www.w3.org/2000/svg" xmlns:xlink="http://www.w3.org/1999/xlink" x="0px" y="0px"
	 viewBox="0 0 512 512" style="enable-background:new 0 0 512 512;" xml:space="preserve">
<g>
	<rect x="358.313" y="50.916" style="fill:#FFB74D;" width="60.317" height="29.994"/>
	<rect x="340.957" y="101.388" style="fill:#FFB74D;" width="60.317" height="29.994"/>
</g>
<g>
	<rect x="358.313" y="430.338" style="fill:#FFA91E;" width="60.317" height="29.994"/>
	<rect x="340.957" y="379.868" style="fill:#FFA91E;" width="60.317" height="29.994"/>
</g>
<polygon style="fill:#00BB64;" points="464.77,300.39 502.302,363.767 453.982,397.09 369.601,326.845 336.198,326.845 
	384.097,477.722 308.264,477.722 225.532,368.766 0,256 225.532,143.234 308.264,34.278 384.097,34.278 336.198,185.155 
	369.601,185.155 453.982,114.91 502.302,148.233 464.77,211.61 512,256 "/>
<polygon style="fill:#008C48;" points="464.77,300.39 502.302,363.767 453.982,397.09 369.601,326.845 336.198,326.845 
	384.097,477.722 308.264,477.722 225.532,368.766 0,256 512,256 "/>
<g>
</g>
<g>
</g>
<g>
</g>
<g>
</g>
<g>
</g>
<g>
</g>
<g>
</g>
<g>
</g>
<g>
</g>
<g>
</g>
<g>
</g>
<g>
</g>
<g>
</g>
<g>
</g>
<g>
</g>
</svg>
