<?xml version="1.0" encoding="iso-8859-1"?>
<!-- Generator: Adobe Illustrator 19.0.0, SVG Export Plug-In . SVG Version: 6.00 Build 0)  -->
<svg version="1.1" id="Layer_1" xmlns="http://www.w3.org/2000/svg" xmlns:xlink="http://www.w3.org/1999/xlink" x="0px" y="0px"
	 viewBox="0 0 512 512" style="enable-background:new 0 0 512 512;" xml:space="preserve">
<g>
	<path style="fill:#507C5C;" d="M111.143,428.644c-3.007,2.113-5.861,1.029-6.948,0.464c-1.086-0.564-3.614-2.274-3.614-5.95
		v-96.413l86.162-96.453v-42.746L78.315,308.926c-4.005,4.488-6.211,10.272-6.211,16.286v97.948
		c0,13.184,7.267,25.147,18.966,31.222c5.129,2.664,10.69,3.98,16.231,3.98c7.099,0,14.162-2.163,20.219-6.42l11.995-8.432
		l-16.377-23.296L111.143,428.644z"/>
	<path style="fill:#507C5C;" d="M433.682,308.92l-110.76-123.989v42.746l88.497,99.068v96.413c0,3.676-2.527,5.385-3.614,5.95
		c-1.088,0.564-3.941,1.649-6.948-0.464l-11.995-8.432l-16.377,23.296l11.995,8.432c6.057,4.259,13.119,6.42,20.219,6.42
		c5.54,0,11.103-1.316,16.231-3.98c11.698-6.076,18.966-18.039,18.966-31.223V325.21
		C439.897,319.197,437.691,313.414,433.682,308.92z"/>
	<path style="fill:#507C5C;" d="M255.999,512l-7.673-4.907c-2.515-1.608-61.585-39.972-61.585-90.592
		c0-50.032,29.181-90.768,66.433-92.743c1.034-0.054,1.925-0.094,2.824-0.094c5.083,0,10.158,0.73,15.083,2.169
		c11.415,3.336,22.056,10.531,30.773,20.807c14.872,17.536,23.403,42.999,23.403,69.86c0,50.62-59.07,88.984-61.585,90.592
		L255.999,512z M255.999,352.14c-0.396,0-0.79,0.029-1.183,0.048c-21.893,1.159-39.598,30.006-39.598,64.312
		c0,24.505,24.898,48.894,40.781,61.135c15.882-12.241,40.781-36.63,40.781-61.135c0-20.22-6.066-38.97-16.642-51.441
		c-5.099-6.013-10.994-10.125-17.044-11.894C260.764,352.486,258.377,352.14,255.999,352.14z"/>
</g>
<path style="fill:#CFF09E;" d="M256.025,14.239c-16.421,0-120.487,89.255-120.487,179.222c0,30.627,36.67,223.04,36.67,223.04
	c62.498,0,99.27,0,167.583,0c0,0,36.672-192.408,36.672-223.035C376.462,102.994,271.45,14.239,256.025,14.239z M318.265,213.202
	c-1.27,6.207-3.444,12.083-6.379,17.486c-0.978,1.801-2.042,3.55-3.184,5.24c-4.569,6.763-10.404,12.598-17.168,17.168
	c-1.69,1.142-3.439,2.206-5.24,3.184c-5.404,2.936-11.28,5.11-17.486,6.38c-4.138,0.846-8.421,1.291-12.809,1.291
	c-35.101,0-63.557-28.456-63.557-63.557s28.454-63.557,63.557-63.557c4.388,0,8.671,0.446,12.809,1.291
	c6.207,1.27,12.083,3.444,17.486,6.379c2.701,1.468,5.285,3.125,7.732,4.955c5.71,4.27,10.678,9.477,14.676,15.395
	c6.853,10.144,10.854,22.372,10.854,35.535C319.556,204.781,319.112,209.064,318.265,213.202z"/>
<g>
	<path style="fill:#507C5C;" d="M255.999,278.189c-42.897,0-77.796-34.899-77.796-77.796s34.899-77.797,77.796-77.797
		c5.267,0,10.537,0.533,15.664,1.58c7.49,1.532,14.699,4.162,21.428,7.817c3.286,1.786,6.469,3.826,9.463,6.064
		c7.014,5.245,13.051,11.58,17.946,18.829c8.697,12.875,13.295,27.918,13.295,43.506c0,5.264-0.531,10.532-1.578,15.658
		c-1.535,7.495-4.165,14.703-7.817,21.431c-1.193,2.196-2.505,4.353-3.899,6.417c-5.617,8.314-12.681,15.379-20.995,20.993
		c-2.055,1.39-4.213,2.7-6.41,3.896c-6.733,3.656-13.942,6.286-21.433,7.818C266.537,277.656,261.268,278.189,255.999,278.189z
		 M255.999,151.075c-27.194,0-49.318,22.124-49.318,49.32c0,27.194,22.124,49.318,49.318,49.318c3.353,0,6.704-0.337,9.954-1.002
		c4.733-0.968,9.289-2.631,13.544-4.942c1.393-0.756,2.761-1.588,4.064-2.469c5.285-3.57,9.773-8.058,13.343-13.34
		c0.886-1.313,1.717-2.681,2.472-4.069c2.308-4.249,3.971-8.808,4.941-13.542c0.665-3.248,1.001-6.598,1.001-9.951
		c0-9.884-2.91-19.417-8.414-27.565c-3.113-4.605-6.948-8.631-11.405-11.963c-1.899-1.42-3.92-2.714-6.004-3.847
		c-4.25-2.31-8.808-3.973-13.54-4.941C262.703,151.412,259.354,151.075,255.999,151.075z"/>
	<path style="fill:#507C5C;" d="M184.003,402.261h143.992c11.277-59.868,34.228-186.354,34.228-208.797
		c0-78.74-86.908-154.895-106.264-164.419c-8.378,4.168-33.458,23.042-58.489,53.936c-30.757,37.957-47.694,77.195-47.694,110.479
		C149.776,215.906,172.726,342.394,184.003,402.261z M351.573,430.739H160.425l-2.206-11.573
		c-3.779-19.83-36.922-194.628-36.922-225.705c0-52.776,31.215-101.175,57.402-132.483C198.42,37.402,236.848,0,256.025,0
		c18.782,0,57.135,37.268,76.899,60.759c26.359,31.331,57.778,79.785,57.778,132.706c0,31.076-33.143,205.872-36.924,225.701
		L351.573,430.739z"/>
</g>
<g>
</g>
<g>
</g>
<g>
</g>
<g>
</g>
<g>
</g>
<g>
</g>
<g>
</g>
<g>
</g>
<g>
</g>
<g>
</g>
<g>
</g>
<g>
</g>
<g>
</g>
<g>
</g>
<g>
</g>
</svg>
