<?xml version="1.0" encoding="iso-8859-1"?>
<!-- Generator: Adobe Illustrator 19.0.0, SVG Export Plug-In . SVG Version: 6.00 Build 0)  -->
<svg version="1.1" id="Layer_1" xmlns="http://www.w3.org/2000/svg" xmlns:xlink="http://www.w3.org/1999/xlink" x="0px" y="0px"
	 viewBox="0 0 352.113 352.113" style="enable-background:new 0 0 352.113 352.113;" xml:space="preserve">
<g>
	<g>
		<path d="M332.977,226.199l-91.339-91.339c-12.127-12.127-28.468-18.921-45.669-18.921c-17.201,0-33.542,6.794-45.669,18.921
			l-16.083,16.083c-8.687,8.429-14.449,18.835-17.115,30.447l-76.719-76.719c-13.245-13.245-13.245-35.263,0-48.508L56.465,40.08
			c6.45-6.193,14.965-9.891,24.254-9.891s17.718,3.354,24.254,9.891l66.57,66.57c1.118,1.118,2.838,1.118,3.956,0
			c1.118-1.118,1.118-2.838,0-3.956l-66.57-66.57c-7.311-7.311-17.46-11.525-28.21-11.525c-10.751,0-20.556,3.956-28.21,11.525
			L36.425,52.207c-15.482,15.825-15.482,41.197,0,56.679l79.728,79.729c0.344,0.86,1.032,1.634,1.892,1.892l9.719,9.719
			c4.128,4.128,9.116,7.311,14.707,9.202c0.774,0.946,1.978,1.29,3.01,0.946c3.354,0.946,6.88,1.376,10.493,1.376
			c10.751,0,20.556-3.956,28.468-11.869l16.083-16.083c9.202-8.945,13.159-21.588,11.267-34.059
			c3.096,1.548,5.935,3.612,8.429,6.193l9.977,9.977c-2.064,12.041-7.655,22.964-16.427,31.736l-16.083,16.083
			c-11.009,11.009-25.974,17.201-41.713,17.201c-15.826,0-30.705-6.192-41.713-17.201l-91.34-91.34
			C11.913,111.379,5.72,96.414,5.72,80.675c0-15.826,5.935-30.447,17.201-41.713l16.083-16.083
			C50.013,11.869,64.979,5.677,80.718,5.677c15.825,0,30.704,6.192,41.713,17.201l84.889,84.889c1.118,1.118,2.838,1.118,3.956,0
			c1.118-1.118,1.118-2.838,0-3.956l-84.889-84.889C114.261,6.794,97.92,0,80.718,0S47.175,6.794,35.048,18.921L18.965,35.005
			C6.838,47.132,0.044,63.473,0.044,80.675s6.794,33.542,18.921,45.67l91.34,91.339c12.127,12.127,28.468,18.921,45.669,18.921
			c17.201,0,33.542-6.794,45.669-18.921l16.083-16.083c8.429-8.687,14.277-19.438,17.115-31.134l76.805,76.805
			c6.192,6.45,9.891,14.965,9.891,24.254s-3.354,17.718-9.891,24.254l-16.083,16.083c-6.45,6.193-14.965,9.891-24.254,9.891
			s-17.718-3.354-24.254-9.891l-63.731-63.731c-1.118-1.118-2.838-1.118-3.956,0c-1.118,1.118-1.118,2.838,0,3.956l63.731,63.731
			c7.311,7.311,17.46,11.525,28.21,11.525c10.751,0,20.9-4.214,28.21-11.525l16.083-16.083c7.311-7.311,11.525-17.46,11.525-28.21
			s-3.956-20.556-11.525-28.21l-91.339-91.34c-3.956-3.956-8.773-7.052-14.019-9.03c-0.688-1.29-2.15-1.892-3.44-1.462
			c-0.172,0.086-0.344,0.086-0.43,0.172c-3.268-0.86-6.708-1.29-10.235-1.29c-10.751,0-20.556,3.956-28.21,11.525l-16.083,16.083
			c-7.311,7.311-11.525,17.46-11.525,28.21c0,2.064,0.172,4.128,0.43,6.107c-3.269-1.634-6.193-3.698-8.859-6.364l-9.891-9.891
			c1.978-12.213,7.741-23.05,16.341-31.564l16.083-16.083c11.009-11.009,25.974-17.201,41.713-17.201
			c15.74,0,30.704,6.193,41.713,17.201l91.34,91.34c11.009,11.009,17.201,25.974,17.201,41.713c0,15.825-6.193,30.704-17.201,41.713
			l-16.083,16.083c-11.009,11.009-25.974,17.201-41.713,17.201c-15.825,0-30.704-6.192-41.713-17.201l-81.707-81.707
			c-1.118-1.118-2.838-1.118-3.956,0c-1.118,1.118-1.118,2.838,0,3.956l81.707,81.707c12.127,12.127,28.468,18.921,45.669,18.921
			c17.46,0,33.542-6.794,45.669-18.577l16.083-16.083c12.127-12.127,18.921-28.468,18.921-45.67S345.104,238.326,332.977,226.199z
			 M155.717,172.101l16.083-16.083c6.45-6.193,14.965-9.891,24.254-9.891c3.183,0,6.364,0.43,9.289,1.204
			c3.01,11.783-0.516,24.082-9.031,32.597L180.23,196.01c-6.45,6.193-14.965,9.891-24.254,9.891c-3.096,0-6.193-0.43-9.03-1.118
			c-0.775-2.752-1.119-5.504-1.119-8.428C145.826,187.066,149.18,178.637,155.717,172.101z"/>
	</g>
</g>
<g>
</g>
<g>
</g>
<g>
</g>
<g>
</g>
<g>
</g>
<g>
</g>
<g>
</g>
<g>
</g>
<g>
</g>
<g>
</g>
<g>
</g>
<g>
</g>
<g>
</g>
<g>
</g>
<g>
</g>
</svg>
