<svg id="Layer_1" enable-background="new 0 0 56.689 56.689" height="512" viewBox="0 0 56.689 56.689" width="512" xmlns="http://www.w3.org/2000/svg"><g><path d="m25.861 52.562-17.649-17.65c-.661-.661-1.025-1.54-1.025-2.476 0-.935.364-1.813 1.025-2.475 1.321-1.323 3.627-1.323 4.949 0l11.686 11.684v-35.05c0-1.928 1.571-3.5 3.5-3.5 1.93 0 3.5 1.57 3.5 3.5v35.05l11.684-11.685c1.323-1.324 3.628-1.323 4.95 0 1.364 1.363 1.364 3.584 0 4.949l-17.659 17.66c-.191.189-1.024.972-2.34 1.023-1.493.059-2.461-.871-2.621-1.03zm3.547-1.405 17.659-17.66c.584-.585.584-1.537 0-2.121-.564-.564-1.555-.567-2.122 0l-15.098 15.099v-39.879c0-.827-.673-1.5-1.5-1.5s-1.5.673-1.5 1.5v39.877l-15.1-15.1c-.566-.566-1.556-.566-2.121 0-.283.283-.439.66-.439 1.061s.156.777.439 1.062l17.654 17.653c.07.072.444.444 1.046.453.622.009 1.015-.377 1.082-.445z"/></g></svg>