<svg height="512pt" viewBox="0 0 512 512.00052" width="512pt" xmlns="http://www.w3.org/2000/svg"><path d="m379.183594 287.9375c-19.21875 19.242188-49.238282 49.292969-74.375 74.605469-29.878906-19.558594-56.886719-41.140625-78.605469-62.859375-26.820313-26.820313-60.359375-65.007813-78.484375-92.058594 23.011719-22.847656 53.105469-52.902344 75.1875-74.964844l-132.660156-132.660156-66.191406 65-.097657.097656c-18.523437 18.523438-26.367187 43.808594-23.3125 75.152344 9.769531 100.226562 132.332031 245.402344 240.675781 318.113281 62.726563 42.097657 152.886719 81.066407 206.214844 27.734375 38.71875-38.714844 53.519532-54.488281 54.132813-55.140625l9.929687-10.601562zm47.125 176.933594c-40.371094 40.367187-120.433594.660156-168.261719-31.4375-100.539063-67.476563-218.707031-205.671875-227.523437-296.097656-2.140626-21.945313 2.777343-39.09375 14.613281-50.960938l44.917969-44.109375 90.378906 90.382813c-45.835938 45.765624-59.644532 59.40625-70.625 70.277343l5.824218 10.039063c17.6875 30.46875 58.710938 77.316406 89.34375 107.949218 33.601563 33.601563 68.09375 57.324219 104.160157 79.898438l8.449219-8.527344c18.539062-18.707031 45.480468-45.71875 61.609374-61.875l90.503907 90.503906c-8.382813 8.652344-22.386719 22.949219-43.390625 43.957032zm0 0"/></svg>